<svg id="Layer_1" enable-background="new 0 0 512 512" height="512" viewBox="0 0 512 512" width="512"
    xmlns="http://www.w3.org/2000/svg">
    <g>
        <g>
            <path
                d="m214.053 143.739-191.52-111.232c-4.639-2.695-10.366-2.706-15.017-.029-4.65 2.676-7.516 7.634-7.516 13v79.208s62.278 86.057 66.9 88.741c0 0 78.283 18.771 91.624 3.329 30.499-35.303 59.053-70.97 55.529-73.017z"
                fill="#00cc71" />
        </g>
        <g>
            <path
                d="m0 226.552c0 5.345 2.845 10.287 7.467 12.971l85.382 49.589c1.204.7 34.323-35.766 65.675-72.357l-158.524-92.069z"
                fill="#84e36b" />
        </g>
    </g>
    <g>
        <g>
            <path
                d="m297.947 143.739 191.52-111.233c4.639-2.695 10.366-2.706 15.017-.029 4.65 2.677 7.517 7.634 7.517 13v79.208s-62.278 86.057-66.9 88.741c0 0-78.283 18.771-91.624 3.329-30.5-35.302-59.054-70.969-55.53-73.016z"
                fill="#009985" />
        </g>
        <g>
            <path
                d="m512 226.552c0 5.345-2.845 10.287-7.467 12.971l-85.382 49.589c-1.204.7-34.323-35.766-65.675-72.357l158.524-92.069z"
                fill="#00cc71" />
        </g>
    </g>
    <g>
        <g>
            <path
                d="m82.159 307.682c0 95.856 77.985 173.841 173.841 173.841l19.404-165.267-19.404-182.414c-95.856 0-173.841 77.984-173.841 173.84z"
                fill="#ffd74a" />
            <path
                d="m256 133.842v347.681c95.856 0 173.841-77.984 173.841-173.841 0-95.856-77.985-173.84-173.841-173.84z"
                fill="#fdbf00" />
        </g>
        <g>
            <g>
                <path
                    d="m242.473 219.096-17.705 54.488h-57.292c-6.162 0-11.623 3.968-13.527 9.828s.182 12.28 5.167 15.902l46.351 33.676-17.705 54.488c-1.904 5.86.182 12.28 5.167 15.902 4.986 3.622 11.735 3.622 16.721 0l46.35-33.675 12.514-60.429-12.514-100.008c-6.162 0-11.623 3.967-13.527 9.828z"
                    fill="#fdbf00" />
            </g>
            <path
                d="m358.051 283.412c-1.904-5.86-7.365-9.828-13.527-9.828h-57.292l-17.705-54.488c-1.904-5.86-7.365-9.828-13.527-9.828v160.437l46.35 33.676c3.901 2.717 10.947 4.165 16.721 0 4.997-3.605 7.071-10.042 5.167-15.902l-17.705-54.488 46.351-33.676c4.985-3.623 7.071-10.043 5.167-15.903z"
                fill="#ff9102" />
        </g>
    </g>
</svg>